<svg xmlns="http://www.w3.org/2000/svg" width="110" height="110" version="1.0" id="ninja"><path fill="#3E3E3F" d="m36.747 64.479-5.638-12.453a2.38 2.38 0 1 0-4.337 1.963l5.641 12.459 4.334-1.969z"></path><path fill="#F3B607" d="m41 67-1-4-11 5 4 3z"></path><path fill="#3E3E3F" d="M83 71.993C80.799 70.59 73 68 67 65c1.389-6.625 5-18 3-31-.912-5.93-11-11-15-11s-14.088 5.07-15 11c-2 13 1.611 24.375 3 31-6 3-13.799 5.59-16 6.993C23.959 73.931 23 87 23 87h64s-.959-13.069-4-15.007z"></path><path fill="#5B5C5F" d="M55 73.25V23c-4 0-14.088 5.07-15 11-2 13 1.611 24.375 3 31l12 8.25z"></path><path fill="#FBD7D7" d="M55 41c-7 0-12 1-12 1v5s7 6 12 6 12-6 12-6v-5s-5-1-12-1z"></path><path fill="#FBC8C8" d="M67 47v-5s-5-1-12-1v12c5 0 12-6 12-6z"></path><path fill="#3E3E3F" d="M51.994 46a2 2 0 0 0-2-2h-.006c.001.021.006.041.006.062a2 2 0 0 1-1.994 2A1.996 1.996 0 0 0 51.994 46zM61.987 46a2 2 0 0 0-2-2h-.006c.001.021.006.041.006.062a2 2 0 0 1-1.994 2A1.998 1.998 0 0 0 61.987 46z"></path><path fill="#E2E4E5" d="M57.932 75.265 43 65a85.295 85.295 0 0 1-4.495 2.063L53.921 78.22l4.011-2.955z"></path><path fill="#F1F2F2" d="m53.391 87 21.117-18.68a149.75 149.75 0 0 1-4.536-1.924L42 87h11.391z"></path></svg>